<!DOCTYPE svg PUBLIC "-//W3C//DTD SVG 1.1//EN" "http://www.w3.org/Graphics/SVG/1.1/DTD/svg11.dtd">
<svg xmlns="http://www.w3.org/2000/svg" viewBox="0 0 333333 312449"
shape-rendering="geometricPrecision" text-rendering="geometricPrecision"
image-rendering="optimizeQuality" fill-rule="evenodd" clip-rule="evenodd"
fill="whitesmoke">
    <path d="M283058 17289v90317c0 4774-3870 8644-8645 8644-2089 0-4005-741-5500-1974l-26540-17998-28858 18588c-4009 2574-9346 1409-11920-2600-928-1444-1369-3062-1368-4660h-17V17289h-19736c-1474 0-2822 509-3874 1356-1062 856-1840 2048-2161 3404-27 133-58 266-91 397v248985c5153-3155 10798-4853 17169-4897 240-20 482-31 728-31h117602c1694 0 3241-700 4369-1828 1127-1127 1827-2674 1827-4369V23484c0-1694-700-3241-1827-4369-1128-1128-2675-1828-4369-1828h-26790zm-91556 266472c-3197 68-6048 1019-8676 2743-2963 1943-5749 4865-8477 8620v8680c0 4774-3870 8645-8645 8645-4774 0-8644-3870-8644-8645v-10180c-941-1144-1807-2230-2610-3236-3792-4751-5264-6595-13219-6595H23485c-6465 0-12339-2641-16591-6894C2641 272646 0 266773 0 260307V23485c0-6466 2641-12339 6893-16592C11145 2641 17019-1 23485-1h127997c5445 0 10486 1895 14496 5060C169989 1894 175030-1 180475-1h129373c6465 0 12340 2640 16593 6893 4252 4252 6893 10125 6893 16593v236822c0 6467-2641 12341-6893 16593-4253 4253-10127 6893-16593 6893H192246c-251 0-498-11-744-32zM157060 20776c-405-827-990-1556-1705-2131-1052-847-2400-1356-3873-1356H23485c-1693 0-3240 700-4368 1828s-1828 2675-1828 4368v236822c0 1693 701 3240 1829 4368s2675 1828 4367 1828h117746c7554 0 12227 796 15828 2602V20775zm108709-3080h-48269v74080l20318-13088 9 15c2811-1802 6540-1872 9479 120l18462 12520V17696z"
fill-rule="nonzero"/>
</svg>