<?xml version="1.0" encoding="utf-8"?>
<!DOCTYPE svg PUBLIC "-//W3C//DTD SVG 1.1//EN" "http://www.w3.org/Graphics/SVG/1.1/DTD/svg11.dtd">
<svg version="1.1" id="Layer_1" xmlns="http://www.w3.org/2000/svg" xmlns:xlink="http://www.w3.org/1999/xlink" x="0px" y="0px"
	 width="600" height="250" viewBox="600 110 600 110" xml:space="preserve" fill="black">
		<path fill="whitesmoke" d="M747.5,117.3c-1-1-9.9,0-9.9,0s-9.9-5.7-14.8-10.1c-4.9-4.3-7.7-3.2-7.7-3.2c-1-2.2-3.2-2.8-3.2-2.8
			s1.6-2,1.6-3.4s-3.4-11.3-3.4-11.3s3.4-2.4,2-7.3c-0.5-1.8-1.6-2.8-2.7-3.3c2-1.6,3.8-3.2,4.1-3.4c0.6-0.6,4.1-11.8,4.1-11.8
			l2.6-2.8c0,0-3.6,0-4.1,1.8c-0.6,1.8-4.3,10.9-4.3,10.9l-5.9,4.8c-0.5,0-0.8,0.1-0.8,0.1c-1.7-1.1-3.5-1.7-5.1-2
			c0.3-0.4,0.7-0.9,1.1-1.4c0.5-0.6,1.2-1.3,1.8-1.9c0.3-0.3,0.7-0.6,1-0.9c0.4-0.3,0.7-0.5,1-0.8c0.3-0.2,0.7-0.5,1-0.7
			c0.3-0.2,0.6-0.4,0.9-0.6c0.6-0.4,1.1-0.6,1.4-0.8c0.4-0.2,0.6-0.3,0.6-0.3s-0.2,0.1-0.6,0.3c-0.4,0.2-0.9,0.4-1.5,0.7
			c-0.3,0.2-0.6,0.3-1,0.5c-0.3,0.2-0.7,0.4-1.1,0.6c-0.4,0.2-0.7,0.5-1.1,0.7c-0.4,0.3-0.7,0.6-1.1,0.8c-0.7,0.6-1.4,1.2-2,1.8
			c-0.5,0.5-1,1.1-1.4,1.6c-2.7-0.4-4.8-0.1-4.8-0.1c-2.8-2.8-7.5-2.8-7.5-2.8s-4.7,0-7.5,2.8c0,0-2.1-0.4-4.8,0.1
			c-0.4-0.5-0.8-1-1.4-1.6c-0.6-0.6-1.3-1.2-2-1.8c-0.4-0.3-0.7-0.6-1.1-0.8c-0.4-0.3-0.7-0.5-1.1-0.7c-0.4-0.2-0.7-0.4-1.1-0.6
			c-0.3-0.2-0.7-0.4-1-0.5c-0.6-0.3-1.1-0.6-1.5-0.7c-0.4-0.2-0.6-0.3-0.6-0.3s0.2,0.1,0.6,0.3c0.3,0.2,0.9,0.4,1.4,0.8
			c0.3,0.2,0.6,0.4,0.9,0.6c0.3,0.2,0.7,0.5,1,0.7c0.3,0.3,0.7,0.5,1,0.8c0.3,0.3,0.7,0.6,1,0.9c0.7,0.6,1.3,1.2,1.8,1.9
			c0.4,0.5,0.8,0.9,1.1,1.4c-1.6,0.3-3.4,0.9-5.1,2c0,0-0.3-0.1-0.8-0.1l-5.9-4.8c0,0-3.8-9.1-4.3-10.9c-0.6-1.8-4.1-1.8-4.1-1.8
			l2.6,2.8c0,0,3.6,11.3,4.1,11.8c0.3,0.3,2.1,1.8,4.1,3.4c-1.2,0.5-2.2,1.5-2.7,3.3c-1.4,4.9,2,7.3,2,7.3s-3.4,9.9-3.4,11.3
			s1.6,3.4,1.6,3.4s-2.2,0.6-3.2,2.8c0,0-2.8-1.2-7.7,3.2c-4.9,4.3-14.8,10.1-14.8,10.1s-8.9-1-9.9,0c-1,1-1,3.8-1,3.8
			s3.4-2,6.5-2.2c3.2-0.2,6.9,0.8,6.9,0.8s13.2-7.3,17.4-12.4c0,0,1.6-0.2,3,1.8c0,0-2.6,17.6-3.9,27.3l-4.3,10.9
			c0,0-6.5,3.2-6.9,5.3c-0.4,2.2,0.6,3.7,0.6,3.7s2.4-4.7,9.3-8.4c0,0-1.6,10.1-0.8,32.4c0.8,22.3,4.5,57.7,8.7,67.3
			c4.1,9.7,5.5,11.5,10.1,7.7c4.5-3.8,12-57.1,12-57.1l3.2,1.2l3.2-1.2c0,0,7.5,53.3,12,57.1c4.5,3.8,5.9,2,10.1-7.7
			c4.1-9.7,7.9-45,8.7-67.3s-0.8-32.4-0.8-32.4c6.9,3.8,9.3,8.4,9.3,8.4s1-1.5,0.6-3.7c-0.4-2.2-6.9-5.3-6.9-5.3l-4.3-10.9
			c-1.4-9.7-3.9-27.3-3.9-27.3c1.4-2,3-1.8,3-1.8c4.2,5.2,17.4,12.4,17.4,12.4s3.8-1,6.9-0.8c3.2,0.2,6.5,2.2,6.5,2.2
			S748.5,118.3,747.5,117.3z"/>
</svg>
