<!DOCTYPE svg PUBLIC "-//W3C//DTD SVG 1.1//EN" "http://www.w3.org/Graphics/SVG/1.1/DTD/svg11.dtd">
<?xml version="1.0" ?>
<svg enable-background="new 0 0 24 24" height="24px" id="Layer_1" version="1.1" viewBox="0 0 24 24" fill="whitesmoke"
width="24px" xml:space="preserve" xmlns="http://www.w3.org/2000/svg" xmlns:xlink="http://www.w3.org/1999/xlink">
    <g>
        <path d="M22.7,7l-3.4-2.6c-0.1-0.1-0.1-0.1-0.2-0.2l-2.4-1.8c-0.1-0.1-0.2-0.1-0.3-0.1H7.6c-0.1,0-0.2,0-0.3,0.1L1.3,7   C1.2,7.1,1.1,7.2,1.1,7.4c0,0.1,0,0.3,0.1,0.4l10.4,13.7c0.2,0.2,0.6,0.2,0.8,0L22.8,7.7c0.1-0.1,0.1-0.2,0.1-0.4   C22.9,7.2,22.8,7.1,22.7,7z M6.5,4.3l1.1-0.8c0.1-0.1,0.2-0.1,0.3-0.1h8.2c0.1,0,0.2,0,0.3,0.1l1.1,0.9c0.1,0.1,0.2,0.2,0.2,0.4   c0,0.2-0.1,0.3-0.2,0.4L16,6.2c-0.1,0.1-0.2,0.1-0.3,0.1c0,0,0,0,0,0L8.6,6.2c-0.1,0-0.2,0-0.3-0.1L6.6,5.1C6.4,5,6.4,4.9,6.3,4.7   C6.3,4.5,6.4,4.4,6.5,4.3z M4.9,10.6C4.9,10.6,4.9,10.6,4.9,10.6c-0.2,0-0.3-0.1-0.4-0.2L2.6,7.9C2.5,7.8,2.4,7.7,2.5,7.5   c0-0.1,0.1-0.2,0.2-0.3l2.2-1.7c0.2-0.1,0.4-0.1,0.6,0l1.8,1.1c0.1,0.1,0.2,0.2,0.2,0.3c0,0.1,0,0.3-0.1,0.4l-2.1,3.1   C5.2,10.5,5,10.6,4.9,10.6z M17.8,12.7l-5.4,7.1C12.3,19.9,12.2,20,12,20s-0.3-0.1-0.4-0.2l-5.4-7.1c-0.1-0.2-0.1-0.4,0-0.5   c0.1-0.2,0.3-0.3,0.4-0.3h10.9c0.2,0,0.4,0.1,0.4,0.3C18,12.3,17.9,12.5,17.8,12.7z M17.9,10.6c-0.1,0.2-0.3,0.3-0.4,0.3H7.1   c-0.2,0-0.4-0.1-0.4-0.3s-0.1-0.4,0-0.5l1.8-2.7c0.1-0.1,0.2-0.2,0.4-0.2c0,0,0,0,0,0l6.7,0.1c0.2,0,0.3,0.1,0.4,0.2l1.9,2.6   C18,10.2,18,10.4,17.9,10.6z M21.4,7.9L19.8,10c-0.1,0.1-0.2,0.2-0.4,0.2c0,0,0,0,0,0c-0.2,0-0.3-0.1-0.4-0.2l-2-2.8   c-0.2-0.2-0.1-0.5,0.1-0.7l1.4-1c0.2-0.1,0.4-0.1,0.6,0l2.2,1.7c0.1,0.1,0.2,0.2,0.2,0.3C21.6,7.7,21.5,7.8,21.4,7.9z"/>
    </g>
</svg>