<?xml version="1.0" ?><!DOCTYPE svg  PUBLIC '-//W3C//DTD SVG 1.1//EN'  'http://www.w3.org/Graphics/SVG/1.1/DTD/svg11.dtd'>
<svg height="512px" style="enable-background:new 0 0 512 512;" version="1.1" viewBox="0 0 512 512"
width="512px" fill="rgb(140, 140, 140)"
xml:space="preserve" xmlns="http://www.w3.org/2000/svg" xmlns:xlink="http://www.w3.org/1999/xlink">
    <g id="A_-_12_x2C__book_x2C__novel_x2C__story_x2C__writing_x2C__theory">
        <g>
            <path d="M97.164,324.323h141.267c0.473,0,0.941-0.026,1.403-0.071c0.089-0.008,0.175-0.021,0.262-0.031    c0.375-0.042,0.744-0.1,1.109-0.17c0.111-0.021,0.222-0.045,0.331-0.068c0.262-0.058,0.518-0.129,0.774-0.199    c0.225-0.066,0.452-0.127,0.67-0.204c0.015-0.006,0.031-0.006,0.047-0.011c5.78-1.93,9.962-7.381,9.962-13.801V123.406    c0-8.069-6.53-14.635-14.558-14.635H97.164c-8.07,0-14.636,6.565-14.636,14.635v1.635v184.727    C82.528,317.794,89.094,324.323,97.164,324.323z M109.301,131.582c0-1.811,1.468-3.28,3.279-3.28h110.358    c1.811,0,3.28,1.469,3.28,3.28v23.519c0,1.812-1.469,3.28-3.28,3.28H112.58c-1.812,0-3.279-1.468-3.279-3.28V131.582z     M193.08,203.074c0,1.812-1.469,3.28-3.28,3.28h-53.386c-1.811,0-3.28-1.468-3.28-3.28c0-1.811,1.469-3.28,3.28-3.28H189.8    C191.611,199.794,193.08,201.263,193.08,203.074z M112.58,173.081h61.991c1.812,0,3.28,1.468,3.28,3.28    c0,1.811-1.469,3.28-3.28,3.28H112.58c-1.812,0-3.279-1.469-3.279-3.28C109.301,174.549,110.769,173.081,112.58,173.081z     M112.58,226.428h101.635c1.812,0,3.28,1.469,3.28,3.28c0,1.812-1.468,3.28-3.28,3.28H112.58c-1.812,0-3.279-1.468-3.279-3.28    C109.301,227.897,110.769,226.428,112.58,226.428z M112.58,253.138h101.635c1.812,0,3.28,1.469,3.28,3.281    c0,1.812-1.468,3.28-3.28,3.28H112.58c-1.812,0-3.279-1.469-3.279-3.28C109.301,254.607,110.769,253.138,112.58,253.138z     M112.58,279.854h61.991c1.812,0,3.28,1.469,3.28,3.28c0,1.811-1.469,3.279-3.28,3.279H112.58c-1.812,0-3.279-1.469-3.279-3.279    C109.301,281.322,110.769,279.854,112.58,279.854z"/>
            <path d="M74.887,357.812h150.232c8.646,0,15.68-7.054,15.68-15.724v-11.333c-0.056,0.006-0.113,0.008-0.168,0.014    c-0.125,0.014-0.251,0.02-0.378,0.03c-0.233,0.02-0.465,0.042-0.701,0.055c-0.371,0.019-0.744,0.029-1.12,0.029H97.164    c-11.687,0-21.195-9.472-21.195-21.115V128.321h-1.082c-8.646,0-15.681,7.017-15.681,15.642v198.125    C59.206,350.758,66.241,357.812,74.887,357.812z"/>
            <rect height="16.959" width="103.798" x="115.86" y="134.862"/>
            <path d="M247.358,342.088v15.724h17.856v-15.724v-13.193c-3.678-1.719-6.781-4.46-8.94-7.855c-2.153,3.397-5.247,6.14-8.916,7.857    V342.088z"/>
            <rect height="16.962" width="103.799" x="292.916" y="278.235"/>
            <path d="M274.178,330.883c-0.384,0-0.765-0.012-1.144-0.031c-0.16-0.01-0.318-0.023-0.478-0.037    c-0.213-0.016-0.428-0.03-0.641-0.053c-0.047-0.006-0.096-0.007-0.143-0.013v11.339c0,8.67,7.054,15.724,15.724,15.724h150.148    c8.669,0,15.722-7.054,15.722-15.724V143.963c0-8.625-7.053-15.642-15.722-15.642h-1.04v181.447    c0,11.644-9.489,21.115-21.154,21.115H274.178z"/>
            <path d="M269.561,323.568c0.002,0.001,0.006,0.001,0.009,0.002c0.231,0.081,0.471,0.145,0.706,0.211    c0.242,0.067,0.482,0.133,0.729,0.187c0.145,0.033,0.291,0.063,0.436,0.092c0.332,0.062,0.667,0.111,1.004,0.151    c0.117,0.014,0.23,0.031,0.348,0.042c0.457,0.044,0.918,0.07,1.387,0.07h141.273c8.047,0,14.594-6.529,14.594-14.556V125.041    v-1.635c0-8.069-6.547-14.635-14.594-14.635H274.178c-8.066,0-14.629,6.565-14.629,14.635v186.361    C259.549,316.188,263.752,321.64,269.561,323.568z M289.637,143.722h61.955c1.812,0,3.28,1.468,3.28,3.28s-1.469,3.28-3.28,3.28    h-61.955c-1.813,0-3.279-1.469-3.279-3.28S287.824,143.722,289.637,143.722z M289.637,170.356h101.635    c1.812,0,3.279,1.469,3.279,3.28c0,1.812-1.468,3.28-3.279,3.28H289.637c-1.813,0-3.279-1.468-3.279-3.28    C286.357,171.825,287.824,170.356,289.637,170.356z M289.637,197.066h101.635c1.812,0,3.279,1.469,3.279,3.28    c0,1.812-1.468,3.28-3.279,3.28H289.637c-1.813,0-3.279-1.468-3.279-3.28C286.357,198.535,287.824,197.066,289.637,197.066z     M370.135,227.061c0,1.811-1.467,3.28-3.279,3.28h-53.387c-1.811,0-3.279-1.469-3.279-3.28c0-1.812,1.469-3.28,3.279-3.28h53.387    C368.668,223.781,370.135,225.249,370.135,227.061z M289.637,250.415h61.955c1.812,0,3.28,1.469,3.28,3.28    s-1.469,3.281-3.28,3.281h-61.955c-1.813,0-3.279-1.47-3.279-3.281S287.824,250.415,289.637,250.415z M286.357,274.955    c0-1.812,1.467-3.279,3.279-3.279h110.357c1.811,0,3.28,1.468,3.28,3.279v23.521c0,1.812-1.47,3.28-3.28,3.28H289.637    c-1.813,0-3.279-1.469-3.279-3.28V274.955z"/>
            <path d="M62.755,375.108c0-1.812-1.469-3.28-3.28-3.28c-8.67,0-15.723-7.053-15.723-15.721v-38.241    c0-1.811-1.468-3.279-3.28-3.279s-3.28,1.469-3.28,3.279v38.241c0,12.285,9.996,22.28,22.283,22.28    C61.286,378.388,62.755,376.919,62.755,375.108z"/>
            <path d="M452.525,109.456h-4.326c-1.812,0-3.28,1.468-3.28,3.28c0,1.811,1.469,3.28,3.28,3.28h4.326    c8.67,0,15.723,7.053,15.723,15.722v58.329c0,1.812,1.469,3.28,3.279,3.28s3.279-1.468,3.279-3.28v-58.329    C474.807,119.451,464.812,109.456,452.525,109.456z"/>
            <path d="M105.461,380.004c-1.812,0-3.28,1.469-3.28,3.28c0,1.811,1.469,3.279,3.28,3.279H344.66c1.811,0,3.279-1.469,3.279-3.279    c0-1.812-1.469-3.28-3.279-3.28H105.461z"/>
            <path d="M420.439,396.67H231.505c-1.812,0-3.28,1.469-3.28,3.279c0,1.812,1.469,3.28,3.28,3.28h188.935    c1.811,0,3.279-1.469,3.279-3.28C423.719,398.139,422.25,396.67,420.439,396.67z"/>
            <path d="M463.429,396.67h-23.641c-1.812,0-3.28,1.469-3.28,3.279c0,1.812,1.469,3.28,3.28,3.28h23.641    c1.812,0,3.28-1.469,3.28-3.28C466.709,398.139,465.24,396.67,463.429,396.67z"/>
            <path d="M150.436,396.127H60.873c-1.812,0-3.28,1.469-3.28,3.28c0,1.811,1.468,3.279,3.28,3.279h89.563    c1.812,0,3.28-1.469,3.28-3.279C153.716,397.596,152.248,396.127,150.436,396.127z"/>
        </g>
    </g>
    <g id="Layer_1"/>
</svg>