<?xml version="1.0" ?>
<!DOCTYPE svg  PUBLIC '-//W3C//DTD SVG 1.1//EN'  'http://www.w3.org/Graphics/SVG/1.1/DTD/svg11.dtd'>
<svg height="512px" style="enable-background:new 0 0 512 512;" version="1.1" viewBox="0 0 512 512" width="512px" fill="rgb(140, 140, 140)"
xml:space="preserve" xmlns="http://www.w3.org/2000/svg" xmlns:xlink="http://www.w3.org/1999/xlink">
    <g id="A_-_78_x2C__chat_x2C__bubble_x2C_message_x2C__popup">
        <g>
            <polygon points="79.926,403.627 281.201,403.627 281.201,388.236 79.462,388.236   "/>
            <path d="M224.204,310.708v-18.75h-12.298c-1.812,0-3.28-1.469-3.28-3.279v-84.109H66.846v24.545v138.229l8.695-0.268    c0.005,0,0.01,0.001,0.015,0h0.02c0.868-0.035,1.718,0.289,2.354,0.886c0.635,0.596,1.008,1.42,1.035,2.292l0.352,11.423h205.166    h12.263v-67.689h-69.261C225.672,313.987,224.204,312.52,224.204,310.708z M94.245,255.861h75.231c1.812,0,3.28,1.469,3.28,3.281    s-1.468,3.28-3.28,3.28H94.245c-1.812,0-3.28-1.469-3.28-3.28S92.433,255.861,94.245,255.861z M94.245,311.834h75.231    c1.812,0,3.28,1.469,3.28,3.28c0,1.811-1.468,3.279-3.28,3.279H94.245c-1.812,0-3.28-1.469-3.28-3.279    C90.965,313.303,92.433,311.834,94.245,311.834z M249.78,337.88c0,1.812-1.469,3.279-3.28,3.279H94.245    c-1.812,0-3.28-1.468-3.28-3.279s1.468-3.28,3.28-3.28H246.5C248.311,334.6,249.78,336.068,249.78,337.88z"/>
            <polygon points="60.286,232.394 43.753,232.394 43.753,368.056 60.286,367.546   "/>
            <polygon points="43.753,403.627 68.832,403.627 43.753,378.518   "/>
            <polygon points="468.171,136.115 451.68,136.115 451.68,271.348 468.231,271.856   "/>
            <polygon points="230.763,291.958 230.763,307.428 300.024,307.428 432.036,307.428 432.484,291.958 300.024,291.958   "/>
            <path d="M63.793,374.035l-0.117,0.003l0,0c-0.094,0.003-0.184-0.015-0.275-0.02c-0.021,0-0.041-0.002-0.061-0.004l-14.37,0.442    l24.246,24.277l-0.753-24.99L63.793,374.035z"/>
            <path d="M448.627,277.815c-0.112,0.009-0.223,0.027-0.336,0.022l-8.824-0.295l-0.314,11.227c-0.002,0.05-0.014,0.097-0.018,0.146    l-0.396,13.629l24.257-24.286L448.627,277.815z"/>
            <path d="M445.121,132.835v-24.461H215.185v92.916v84.109h12.298h72.541h132.649l0.306-10.551l0.022-0.785    c0.016-0.562,0.189-1.097,0.47-1.572c0.047-0.077,0.083-0.161,0.136-0.236c0.059-0.084,0.137-0.156,0.205-0.234    c0.072-0.085,0.138-0.176,0.219-0.253h0.002v-0.002c0.043-0.039,0.093-0.067,0.137-0.104c0.617-0.522,1.406-0.809,2.211-0.786    l8.74,0.27V132.835z M254.166,139.346h63.156c1.813,0,3.279,1.469,3.279,3.28c0,1.812-1.467,3.28-3.279,3.28h-63.156    c-1.812,0-3.28-1.468-3.28-3.28C250.886,140.815,252.354,139.346,254.166,139.346z M254.166,169.21h63.156    c1.813,0,3.279,1.469,3.279,3.28c0,1.812-1.467,3.28-3.279,3.28h-63.156c-1.812,0-3.28-1.468-3.28-3.28    C250.886,170.679,252.354,169.21,254.166,169.21z M357.422,258.994H254.166c-1.812,0-3.28-1.469-3.28-3.281    c0-1.811,1.468-3.28,3.28-3.28h103.256c1.812,0,3.28,1.469,3.28,3.28C360.702,257.525,359.233,258.994,357.422,258.994z     M357.422,242.349H293.41c-1.812,0-3.28-1.469-3.28-3.28c0-1.812,1.469-3.28,3.28-3.28h64.012c1.812,0,3.28,1.468,3.28,3.28    C360.702,240.88,359.233,242.349,357.422,242.349z M394.098,225.704H254.166c-1.812,0-3.28-1.469-3.28-3.28    c0-1.812,1.468-3.28,3.28-3.28h139.932c1.812,0,3.28,1.468,3.28,3.28C397.378,224.235,395.909,225.704,394.098,225.704z     M394.098,209.059H254.166c-1.812,0-3.28-1.469-3.28-3.28c0-1.812,1.468-3.28,3.28-3.28h139.932c1.812,0,3.28,1.468,3.28,3.28    C397.378,207.59,395.909,209.059,394.098,209.059z M394.098,192.414H254.166c-1.812,0-3.28-1.469-3.28-3.28    c0-1.812,1.468-3.28,3.28-3.28h139.932c1.812,0,3.28,1.468,3.28,3.28C397.378,190.945,395.909,192.414,394.098,192.414z"/>
            <polygon points="468.236,282.295 443.133,307.428 468.246,307.428   "/>
        </g>
    </g>
    <g id="Layer_1"/>
</svg>