<?xml version="1.0" ?>
<!DOCTYPE svg  PUBLIC '-//W3C//DTD SVG 1.1//EN'  'http://www.w3.org/Graphics/SVG/1.1/DTD/svg11.dtd'>
<svg height="512px" style="enable-background:new 0 0 512 512;" version="1.1" viewBox="0 0 512 512" fill="rgb(140, 140, 140)"
width="512px" xml:space="preserve" xmlns="http://www.w3.org/2000/svg" xmlns:xlink="http://www.w3.org/1999/xlink">
    <g id="A_-_83_x2C__notepad_x2C__notebook_x2C__pad_x2C__novel">
        <g>
            <polygon points="129.15,369.97 129.15,353.252 99.519,353.252 99.519,369.974 114.295,401.256   "/>
            <path d="M423.117,140.798H162.403v35.199h260.714V140.798z M390.59,162.397H190.655c-1.812,0-3.28-1.469-3.28-3.28    c0-1.812,1.468-3.28,3.28-3.28H390.59c1.811,0,3.28,1.468,3.28,3.28C393.87,160.929,392.4,162.397,390.59,162.397z"/>
            <path d="M423.117,182.557H162.403v35.205h260.714V182.557z M390.59,204.161H190.655c-1.812,0-3.28-1.469-3.28-3.28    c0-1.812,1.468-3.28,3.28-3.28H390.59c1.811,0,3.28,1.468,3.28,3.28C393.87,202.692,392.4,204.161,390.59,204.161z"/>
            <path d="M423.117,224.322H162.403v35.105h260.714V224.322z M390.59,245.826H190.655c-1.812,0-3.28-1.468-3.28-3.28    c0-1.811,1.468-3.28,3.28-3.28H390.59c1.811,0,3.28,1.469,3.28,3.28C393.87,244.358,392.4,245.826,390.59,245.826z"/>
            <rect height="176.04" width="11.489" x="99.519" y="170.653"/>
            <path d="M423.117,83.274V63.897h-8.959c-1.627,13.183-12.906,23.425-26.545,23.425c-1.813,0-3.281-1.468-3.281-3.28    c0-1.811,1.469-3.28,3.281-3.28c10.013,0,18.324-7.315,19.901-16.865H350.07c-1.625,13.183-12.902,23.425-26.537,23.425    c-1.813,0-3.279-1.468-3.279-3.28c0-1.811,1.467-3.28,3.279-3.28c10.01,0,18.317-7.315,19.895-16.865h-57.486    c-1.623,13.183-12.883,23.425-26.497,23.425c-1.812,0-3.28-1.468-3.28-3.28c0-1.811,1.468-3.28,3.28-3.28    c9.989,0,18.279-7.315,19.853-16.865h-57.436c-1.625,13.183-12.907,23.425-26.546,23.425c-1.812,0-3.28-1.468-3.28-3.28    c0-1.811,1.468-3.28,3.28-3.28c10.014,0,18.326-7.315,19.904-16.865h-52.816v70.342h260.714V83.274z M390.59,120.637H190.655    c-1.812,0-3.28-1.469-3.28-3.28c0-1.812,1.468-3.28,3.28-3.28H390.59c1.811,0,3.28,1.468,3.28,3.28    C393.87,119.168,392.4,120.637,390.59,120.637z"/>
            <path d="M323.533,40.473c-10.016,0-18.326,7.314-19.904,16.865h39.799C341.851,47.787,333.543,40.473,323.533,40.473z"/>
            <path d="M259.444,40.473c-9.989,0-18.279,7.314-19.854,16.865h39.706C277.724,47.787,269.434,40.473,259.444,40.473z"/>
            <path d="M387.613,40.473c-9.99,0-18.281,7.314-19.855,16.865h39.757C405.938,47.787,397.626,40.473,387.613,40.473z"/>
            <rect height="8.417" width="29.632" x="99.519" y="155.677"/>
            <path d="M195.314,40.473c-9.989,0-18.28,7.314-19.854,16.865h39.758C213.641,47.787,205.329,40.473,195.314,40.473z"/>
            <path d="M423.117,349.51H162.403v52.003h37.136h202.804l-0.435-14.173l-0.003-0.105c0,0,0-0.001,0-0.002v-0.003    c-0.004-0.084,0.013-0.165,0.017-0.247c0.006-0.132,0.006-0.266,0.025-0.396c0.018-0.101,0.053-0.195,0.08-0.293    c0.027-0.109,0.048-0.22,0.088-0.326c0.039-0.101,0.096-0.193,0.143-0.291c0.049-0.094,0.085-0.191,0.142-0.281    c0.082-0.134,0.187-0.257,0.289-0.377c0.036-0.043,0.063-0.092,0.103-0.134l0,0c0.002-0.002,0.004-0.004,0.004-0.006    c0.094-0.097,0.199-0.176,0.3-0.262c0.063-0.051,0.119-0.112,0.185-0.159c0.096-0.067,0.199-0.116,0.301-0.173    c0.084-0.049,0.164-0.106,0.254-0.146c0.106-0.048,0.22-0.075,0.33-0.111c0.093-0.03,0.183-0.07,0.277-0.094    c0.119-0.027,0.242-0.033,0.365-0.048c0.091-0.01,0.179-0.032,0.271-0.035h0.008c0,0,0,0,0.002,0l0.055-0.002l17.975-0.573V349.51    z M390.59,371.109H190.655c-1.812,0-3.28-1.469-3.28-3.28c0-1.811,1.468-3.279,3.28-3.279H390.59c1.811,0,3.28,1.469,3.28,3.279    C393.87,369.641,392.4,371.109,390.59,371.109z"/>
            <path d="M408.567,390.313l0.454,14.021c0.02,0.15,0.031,0.304,0.031,0.459c0,0.122-0.022,0.237-0.035,0.355l0.746,24.322    l40.436-40.361L408.567,390.313z"/>
            <polygon points="455.041,435.113 455.041,393.543 413.412,435.098   "/>
            <polygon points="429.678,86.554 429.678,383.14 455.041,382.406 455.041,86.554   "/>
            <path d="M129.15,125.421c0-3.591-2.92-6.512-6.509-6.512h-16.657c-3.565,0-6.466,2.921-6.466,6.512v23.696h29.632V125.421z"/>
            <path d="M423.117,265.987H162.403v35.199h260.714V265.987z M390.59,287.586H190.655c-1.812,0-3.28-1.468-3.28-3.28    c0-1.812,1.468-3.279,3.28-3.279H390.59c1.811,0,3.28,1.468,3.28,3.279C393.87,286.118,392.4,287.586,390.59,287.586z"/>
            <rect height="176.04" width="11.583" x="117.567" y="170.653"/>
            <path d="M423.117,307.746H162.403v35.204h260.714V307.746z M390.59,329.349H190.655c-1.812,0-3.28-1.468-3.28-3.279    c0-1.813,1.468-3.28,3.28-3.28H390.59c1.811,0,3.28,1.468,3.28,3.28C393.87,327.881,392.4,329.349,390.59,329.349z"/>
            <polygon points="202.818,408.072 202.818,435.017 403.375,435.094 402.544,408.072   "/>
            <path d="M159.417,419.079h-15.557h-13.534H75.983c-10.49,0-19.024,8.535-19.024,19.025c0,10.489,8.534,19.022,19.024,19.022    h37.062h30.814h10.752c7.131,0,12.932-5.777,12.932-12.879c0-7.154-5.801-12.976-12.932-12.976h-41.567    c-1.812,0-3.28,1.469-3.28,3.28c0,1.811,1.468,3.279,3.28,3.279h41.567c3.513,0,6.372,2.878,6.372,6.416    c0,3.484-2.859,6.319-6.372,6.319h-10.752h-30.814H75.983c-6.873,0-12.464-5.591-12.464-12.463    c0-6.874,5.592-12.466,12.464-12.466h54.342h13.534h15.557c10.84,0,19.659,8.822,19.659,19.667    c0,10.842-8.819,19.663-19.659,19.663H60.435c-1.811,0-3.28,1.469-3.28,3.28c0,1.811,1.469,3.279,3.28,3.279h98.982    c14.457,0,26.218-11.764,26.218-26.223C185.635,430.845,173.874,419.079,159.417,419.079z"/>
        </g>
    </g>
    <g id="Layer_1"/>
</svg>