<!DOCTYPE svg PUBLIC "-//W3C//DTD SVG 1.1//EN" "http://www.w3.org/Graphics/SVG/1.1/DTD/svg11.dtd">
<svg height="512px" style="enable-background:new 0 0 512 512;" version="1.1" viewBox="0 0 512 512" fill="rgb(140, 140, 140)"
width="512px" xml:space="preserve" xmlns="http://www.w3.org/2000/svg" xmlns:xlink="http://www.w3.org/1999/xlink">
    <path d="M118.41,152.643h34.277c2.025,0,3.66,1.637,3.66,3.66v34.279    c0,2.023-1.635,3.66-3.66,3.66H118.41c-2.025,0-3.661-1.637-3.661-3.66v-34.279C114.75,154.279,116.385,152.643,118.41,152.643     M118.41,226.615h34.277c2.025,0,3.66,1.638,3.66,3.661v9.283l6.696-2.678c1.842-0.743,3.987,0.179,4.731,2.054    c0.744,1.845-0.151,3.987-2.025,4.73l-9.402,3.75v17.139c0,2.023-1.635,3.66-3.66,3.66H118.41c-2.025,0-3.661-1.637-3.661-3.66    v-34.278C114.75,228.253,116.385,226.615,118.41,226.615z M118.41,300.589h34.277c2.025,0,3.66,1.638,3.66,3.661v34.278    c0,2.023-1.635,3.659-3.66,3.659H118.41c-2.025,0-3.661-1.636-3.661-3.659V304.25C114.75,302.227,116.385,300.589,118.41,300.589z     M118.41,374.563h34.277c2.025,0,3.66,1.637,3.66,3.66v9.283l6.696-2.678c1.842-0.744,3.987,0.18,4.731,2.053    c0.744,1.846-0.151,3.988-2.025,4.732l-9.402,3.749v17.14c0,2.023-1.635,3.659-3.66,3.659H118.41    c-2.025,0-3.661-1.636-3.661-3.659v-34.279C114.75,376.199,116.385,374.563,118.41,374.563z M374.934,398.636l14.104,3.779    l16.365-4.226l25.977-96.945l-3.449-1.875c-1.162-0.625-1.847-1.814-1.906-3.035c-0.982-20.145-10.472-24.102-19.341-27.792    c-6.039-2.499-11.872-4.939-15.799-11.128c-8.033-12.588-15.235-19.401-20.949-22.109l-0.059-0.029h-0.032l-0.088-0.06    l-0.179-0.06l-0.028-0.029l-0.031-0.03l-0.088-0.03l-0.091-0.029l0,0l-0.088-0.03l-0.271-0.118l-0.056-0.029h-0.032l-0.147-0.061    l-0.031-0.029l-0.207-0.061h-0.031l-0.148-0.059l-0.031-0.029l-0.176-0.06h-0.031l-0.088-0.03l0,0l-0.15-0.029l-0.028-0.03h-0.06    l-0.06-0.03h-0.032l-0.059-0.029l0,0l-0.088-0.029l0,0h-0.088v-0.03h-0.061h-0.059l-0.032-0.03h-0.06l0,0l-0.088-0.029l0,0    l-0.06-0.029h-0.031h-0.06h-0.028l-0.06-0.029h-0.031h-0.028l-0.06-0.03h-0.028h-0.06h-0.031l-0.061-0.03l0,0h-0.027h-0.032h-0.06    l-0.027-0.029h-0.061l0,0h-0.06h-0.031l-0.06-0.029h-0.028h-0.032h-0.087l-0.06-0.03l0,0h-0.061l0,0h-0.146h-0.031l-0.088-0.03    h-0.032h-0.06l0,0h-0.147h-0.028c-0.33-0.029-0.656-0.029-0.954,0l0,0l-0.446,0.061h-0.027l-0.031,0.029h-0.029h-0.031l0,0h-0.06    v0.029h-0.028h-0.031h-0.06h-0.028l-0.031,0.03l0,0h-0.06v0.03h-0.028h-0.031l0,0l-0.061,0.029h-0.059l0,0h-0.028l-0.032,0.029    l0,0h-0.056l-0.032,0.029h-0.027h-0.031l-0.028,0.03l0,0h-0.032l0,0h-0.027l-0.031,0.03l0,0h-0.029l-0.031,0.029h-0.027h-0.032    v0.029h-0.06l0,0l-0.027,0.03h-0.032l0,0l-0.028,0.03h-0.031l-0.028,0.029l0,0h-0.031l-0.028,0.03h-0.031h-0.028v0.03h-0.028    h-0.031l-0.028,0.029l0,0l-0.031,0.029h-0.028l0,0l-0.06,0.029l-0.032,0.029l0,0l-0.027,0.03h-0.031l0,0l-0.061,0.03l-0.027,0.029    l0,0l-0.031,0.03h-0.029l0,0l-0.031,0.03h-0.027v0.029h-0.032l0,0l-0.028,0.029h-0.031v0.03l-0.027,0.028l0,0h-0.061v0.03h-0.027    l-0.032,0.03l0,0v0.029h-0.028l0,0l-0.031,0.03h-0.028v0.03l-0.031,0.029h-0.028l-0.031,0.029l0,0l-0.088,0.061v0.029    l-0.031,0.029l-0.028,0.029h-0.032l-0.088,0.09l0,0c-0.238,0.238-0.445,0.506-0.656,0.804l-0.027,0.03l0,0l-0.031,0.029    l-0.028,0.029v0.03l-0.032,0.029l-0.027,0.06v0.029l-0.031,0.03l-0.029,0.03l0,0l-0.031,0.059l0,0l-0.027,0.03l-0.028,0.06v0.03    h-0.032v0.059h-0.027v0.03l-0.031,0.029l-0.029,0.06l0,0l-0.031,0.06v0.03h-0.027v0.06l-0.032,0.029l0,0l-0.028,0.059v0.03h-0.031    v0.06l-0.027,0.03l0,0l-0.061,0.149c-0.298,0.624-0.537,1.338-0.684,2.082h-0.032l-0.06,0.387l0,0l-0.027,0.09l-0.032,0.148v0.029    v0.09v0.029l-0.028,0.09l0,0v0.089l-0.031,0.03v0.06v0.089v0.029l-0.028,0.09l0,0v0.09v0.029v0.088l-0.031,0.061v0.029v0.18    l-0.028,0.029v0.029v0.06v0.06v0.06v0.09l0,0l-0.028,0.118l0,0v0.09v0.06v0.06v0.06v0.03v0.118l-0.031,0.119v0.03v0.059v0.06v0.06    v0.09l0,0v0.119v0.029v0.089v0.03v0.059v0.09v0.03v0.118l0,0v0.119v0.03v0.06v0.09v0.028v0.12l0.031,0.207v0.209v0.148v0.06    l0.028,0.209v0.208l0.028,0.119v0.09l0.031,0.207v0.209l0.028,0.059v0.15l0.031,0.207l0.028,0.18v0.059l0.032,0.148l0.027,0.209    l0.031,0.209v0.029l0.061,0.178l0.027,0.209l0.031,0.178v0.03l0.061,0.208l0.027,0.209l0.032,0.118l0.028,0.089l0.031,0.209    l0.088,0.298l0.031,0.089l0.115,0.477l0.061,0.148l0.119,0.417v0.029c0.15,0.536,0.33,1.071,0.537,1.606l0.06,0.09l0.028,0.089    l0.15,0.417l0.028,0.09c1.249,3.034,3.067,6.07,5.235,9.045l0.032,0.03l0.298,0.387l0.088,0.148l0.061,0.06l0.15,0.209    l0.147,0.208l0.088,0.089l0.091,0.119l0.147,0.209l0.151,0.207h0.027l0.299,0.387l0.147,0.18l0.031,0.029l0.147,0.209l0.506,0.624    l0.15,0.179l0.06,0.059l0.12,0.15l0.175,0.207l0.151,0.209l0.179,0.208l0.179,0.209l0.116,0.118l0.06,0.06l0.179,0.209    l0.151,0.208l0.088,0.09l0.091,0.118l0.175,0.208l0.18,0.179l0.031,0.06l0.326,0.357l0,0l0.18,0.179v0.029l0.179,0.208    l0.179,0.179l0.119,0.149l0.061,0.06l0.207,0.208l0.179,0.209l0.06,0.059l0.119,0.119l0.176,0.208l0.179,0.208l0.032,0.03    l0.146,0.179l0.211,0.179l0.147,0.179l0.028,0.029l0.179,0.209l0.21,0.207l0.088,0.09l0.092,0.089l0.267,0.269l0.028,0.029    l0.031,0.059l0.028,0.03c2.917,3.124,6.1,6.19,9.227,9.226l4.134,4.076c1.429,1.398,1.46,3.72,0.031,5.146    c-0.954,0.953-2.291,1.281-3.541,0.953l-9.047-2.41V398.636z M426.888,397.922c-1.516-2.619-2.024-5.803-1.189-8.928    c0.804-3.035,2.766-5.475,5.296-6.992l0.179-0.119c2.591-1.518,5.773-2.023,8.897-1.19c3.154,0.862,5.625,2.887,7.142,5.476    c1.487,2.588,1.993,5.772,1.189,8.867l-0.028,0.029c-0.835,3.154-2.856,5.654-5.446,7.142c-2.618,1.518-5.802,2.023-8.929,1.19    C430.875,402.563,428.376,400.51,426.888,397.922z M411.92,402.117l-1.607,6.01l41.837,11.188l28.27-105.544l-41.806-11.218    L411.92,402.117z M219.937,41.236c3.927,0,7.496,1.577,10.058,4.166c2.586,2.559,4.166,6.13,4.166,10.058    c0,3.929-1.579,7.498-4.166,10.058c-2.562,2.589-6.131,4.166-10.058,4.166c-3.927,0-7.468-1.577-10.059-4.166    c-2.558-2.56-4.166-6.129-4.166-10.058c0-3.928,1.607-7.499,4.166-10.058C212.468,42.813,216.009,41.236,219.937,41.236z     M284.834,74.236V53.853h-37.046c-2.025,0-3.66-1.636-3.66-3.659v-0.09c-0.032-6.635-2.737-12.676-7.082-17.02    c-4.373-4.374-10.444-7.082-17.109-7.082s-12.736,2.708-17.109,7.082c-4.376,4.373-7.082,10.443-7.082,17.109    c0,2.023-1.639,3.659-3.661,3.659h-37.046v20.384v0.119v17.467h129.795V74.355V74.236z M149.027,159.963h-26.96v26.959h26.96    V159.963z M149.027,233.936h-26.96v26.959h26.96v-10.533l-11.753,4.701c-1.667,0.715-3.601,0.119-4.552-1.457l-5.447-8.838    c-1.042-1.727-0.505-3.987,1.222-5.029c1.727-1.041,3.955-0.506,4.997,1.221l3.84,6.219l11.693-4.672V233.936z M149.027,307.91    h-26.96v26.958h26.96V307.91z M149.027,381.883h-26.96v26.959h26.96v-10.534l-11.753,4.702c-1.667,0.714-3.601,0.119-4.552-1.459    l-5.447-8.836c-1.042-1.727-0.505-3.988,1.222-5.029c1.727-1.042,3.955-0.507,4.997,1.219l3.84,6.221l11.693-4.672V381.883z     M224.814,50.58c-1.249-1.25-2.976-2.023-4.878-2.023c-1.906,0-3.632,0.773-4.882,2.023s-2.021,2.975-2.021,4.88    c0,1.903,0.772,3.63,2.021,4.88s2.976,2.023,4.882,2.023c1.902,0,3.629-0.773,4.878-2.023c1.25-1.25,2.025-2.977,2.025-4.88    C226.839,53.555,226.064,51.83,224.814,50.58z M164.083,192.248c-1.993,0-3.66-1.637-3.66-3.66s1.667-3.66,3.66-3.66h135.421    c2.021,0,3.66,1.637,3.66,3.66s-1.639,3.66-3.66,3.66H164.083z M164.083,266.221c-1.993,0-3.66-1.636-3.66-3.66    c0-2.023,1.667-3.659,3.66-3.659h135.421c2.021,0,3.66,1.636,3.66,3.659c0,2.024-1.639,3.66-3.66,3.66H164.083z M164.083,340.195    c-1.993,0-3.66-1.667-3.66-3.661c0-2.022,1.667-3.659,3.66-3.659h135.421c2.021,0,3.66,1.637,3.66,3.659    c0,1.994-1.639,3.661-3.66,3.661H164.083z M164.083,414.168c-1.993,0-3.66-1.637-3.66-3.659c0-2.024,1.667-3.661,3.66-3.661    h135.421c2.021,0,3.66,1.637,3.66,3.661c0,2.022-1.639,3.659-3.66,3.659H164.083z M370.35,423.57    c-1.961-0.505-3.123-2.499-2.586-4.463c0.506-1.935,2.498-3.095,4.464-2.589l10.413,2.797l7.349-4.255    c0.896-0.476,1.878-0.596,2.769-0.356l37.998,10.176c1.934,0.506,3.095,2.499,2.559,4.464c-0.506,1.934-2.499,3.095-4.461,2.588    l-36.541-9.789l-7.142,4.136c-0.835,0.565-1.935,0.773-2.976,0.477L370.35,423.57z M44.791,485.999c-2.021,0-3.66-1.637-3.66-3.66    c0-1.993,1.639-3.66,3.66-3.66h242.514c2.021,0,3.657,1.667,3.657,3.66c0,2.023-1.636,3.66-3.657,3.66H44.791z M186.789,469.604    c-2.025,0-3.66-1.637-3.66-3.66c0-1.993,1.635-3.66,3.66-3.66h167.82c2.025,0,3.661,1.667,3.661,3.66    c0,2.023-1.636,3.66-3.661,3.66H186.789z M371.811,469.604c-2.025,0-3.661-1.637-3.661-3.66c0-1.993,1.636-3.66,3.661-3.66h20.976    c1.993,0,3.661,1.667,3.661,3.66c0,2.023-1.668,3.66-3.661,3.66H371.811z M35.242,470.109c-2.025,0-3.66-1.637-3.66-3.66    s1.635-3.66,3.66-3.66h79.508c2.021,0,3.661,1.637,3.661,3.66s-1.639,3.66-3.661,3.66H35.242z M447.749,478.679    c2.021,0,3.656,1.667,3.656,3.66c0,2.023-1.635,3.66-3.656,3.66h-73.022c-2.025,0-3.66-1.637-3.66-3.66    c0-1.993,1.635-3.66,3.66-3.66H447.749z M107.695,50.64c2.025,0,3.661,1.636,3.661,3.659s-1.635,3.661-3.661,3.661H51.368v121.464    c0,2.023-1.636,3.659-3.661,3.659c-2.021,0-3.66-1.636-3.66-3.659V54.299c0-2.023,1.639-3.659,3.66-3.659H107.695z     M367.613,401.433V282.17v-8.51l-0.176-0.209l-0.18-0.178l-0.091-0.119l-0.119-0.09l-0.179-0.207l-0.176-0.209l0,0l-0.18-0.178    l-0.179-0.209l-0.119-0.119l-0.088-0.09l-0.179-0.207l-0.18-0.209l0,0l-0.178-0.208l-0.18-0.208l-0.119-0.119l-0.06-0.061    l-0.179-0.207l-0.18-0.209l-0.027-0.029l-0.148-0.179l-0.178-0.208l-0.12-0.148l-0.06-0.061l-0.179-0.207l-0.179-0.209    l-0.327-0.416l-0.119-0.149l-0.06-0.06l-0.18-0.208l-0.178-0.209l-0.029-0.03l-0.119-0.178l-0.179-0.209l-0.565-0.654    l-0.119-0.178l-0.146-0.209l-0.33-0.416l-0.18-0.209l-0.326-0.416l-0.119-0.179l-0.028-0.03l-0.478-0.624l-0.146-0.209    l-0.151-0.179v-0.059l-0.147-0.209l-0.179-0.208c-3.542-4.94-6.22-10.087-7.381-15.532l-0.06-0.298l0,0l-0.06-0.238l-0.06-0.268    v-0.09l-0.028-0.178l-0.06-0.268l-0.027-0.149v-0.119l-0.061-0.268l-0.031-0.268l-0.028-0.268l-0.031-0.268l0,0l-0.028-0.269    l-0.031-0.268l-0.028-0.06v-0.208l-0.032-0.268v-0.149l-0.027-0.119v-0.268l-0.031-0.208v-0.06v-0.268v-0.299l-0.028-0.148v-0.059    v-0.12v-0.118v-0.029v-0.18l0,0v-0.178v-0.061v-0.089v-0.118v-0.061v-0.148l0,0v-0.148v-0.09l0.028-0.089v-0.118v-0.03v-0.179l0,0    v-0.148v-0.06v-0.09l0.031-0.149v-0.029v-0.148v-0.029l0.027-0.119v-0.09v-0.089v-0.12v-0.029l0.032-0.148v-0.029v-0.119    l0.028-0.09v-0.059v-0.149v-0.03l0.031-0.148v-0.029l0.028-0.119v-0.09l0.031-0.06v-0.147l0,0l0.028-0.15v-0.059l0.031-0.089    v-0.09l0.028-0.06v-0.148l0,0l0.032-0.148l0.027-0.061v-0.09l0.028-0.088v-0.06l0.031-0.149l0.028-0.148l0.031-0.06v-0.089    l0.028-0.09v-0.029l0.032-0.148l0.027-0.03l0.031-0.119v-0.06l0.028-0.089l0.032-0.089v-0.03l0.027-0.149v-0.029l0.031-0.119    l0.029-0.06l0.031-0.089l0.027-0.089v-0.03l0.032-0.148l0.028-0.03l0.059-0.179v-0.059l0.032-0.119h0.028l0.031-0.148l0.028-0.03    l0.028-0.09l0.031-0.089v-0.061l0.06-0.118l0,0l0.028-0.149l0.031-0.029l0.028-0.09l0.031-0.088l0.028-0.03l0.031-0.119    l0.061-0.148l0.027-0.03l0.031-0.089l0.028-0.09l0.032-0.03l0.088-0.268l0.031-0.029l0.027-0.09l0.061-0.088l0.059-0.119v-0.03    l0.029-0.06l0.119-0.208l0.031-0.06v-0.029l0.06-0.12v-0.03l0.06-0.059l0.299-0.565h0.027c0.239-0.417,0.478-0.803,0.744-1.16    c1.906-2.589,4.553-4.285,7.795-4.851c0.625-0.119,1.25-0.178,1.938-0.178h0.027l0.358-0.03h0.06l0.445,0.03h0.061h0.027l0,0    h0.061l0.417,0.029h0.028h0.06h0.031l0,0h0.06l0.147,0.029h0.032h0.059h0.029l0,0l0.059,0.03h0.061h0.031l0,0h0.057h0.031    l0.119,0.03h0.028h0.06l0,0h0.031l0.061,0.029h0.059h0.028l0,0l0.239,0.029h0.059l0,0l0.029,0.029V77.984h-75.459v17.497    c0,2.023-1.639,3.661-3.66,3.661H151.378c-2.025,0-3.661-1.638-3.661-3.661V77.984h-75.43    c1.695,121.821,0.685,243.762,0.685,365.612h294.641v-42.075V401.433z" style="fill-rule:evenodd;clip-rule:evenodd;"/>
</svg>